<mxfile host="app.diagrams.net" modified="2023-07-24T08:20:03.695Z" agent="Mozilla/5.0 (Macintosh; Intel Mac OS X 10_15_7) AppleWebKit/537.36 (KHTML, like Gecko) Chrome/115.0.0.0 Safari/537.36" etag="3HnOf1G8G2oUBYM1uHTX" version="21.6.5" type="github">
  <diagram id="yPxyJZ8AM_hMuL3Unpa9" name="gitflow">
    <mxGraphModel dx="1434" dy="669" grid="0" gridSize="10" guides="1" tooltips="1" connect="1" arrows="1" fold="1" page="0" pageScale="1" pageWidth="850" pageHeight="1100" math="0" shadow="0">
      <root>
        <mxCell id="0" />
        <mxCell id="1" parent="0" />
        <mxCell id="0M848GgJ3vVuBnx2eCQG-177" value="Master" style="text;html=1;strokeColor=#6c8ebf;fillColor=#dae8fc;align=center;verticalAlign=middle;whiteSpace=wrap;rounded=0;" parent="1" vertex="1">
          <mxGeometry x="1250" y="910" width="90" height="30" as="geometry" />
        </mxCell>
        <mxCell id="0M848GgJ3vVuBnx2eCQG-178" value="Feature 1" style="text;html=1;strokeColor=#9673a6;fillColor=#e1d5e7;align=center;verticalAlign=middle;whiteSpace=wrap;rounded=0;" parent="1" vertex="1">
          <mxGeometry x="919.97" y="910" width="90" height="30" as="geometry" />
        </mxCell>
        <mxCell id="0M848GgJ3vVuBnx2eCQG-179" value="Feature 2" style="text;html=1;strokeColor=#9673a6;fillColor=#e1d5e7;align=center;verticalAlign=middle;whiteSpace=wrap;rounded=0;" parent="1" vertex="1">
          <mxGeometry x="809.97" y="910" width="90" height="30" as="geometry" />
        </mxCell>
        <mxCell id="0M848GgJ3vVuBnx2eCQG-180" value="Dev 2" style="text;html=1;strokeColor=#666666;fillColor=#f5f5f5;align=center;verticalAlign=middle;whiteSpace=wrap;rounded=0;fontColor=#333333;" parent="1" vertex="1">
          <mxGeometry x="701.97" y="910" width="90" height="30" as="geometry" />
        </mxCell>
        <mxCell id="0M848GgJ3vVuBnx2eCQG-181" value="Dev 1" style="text;html=1;strokeColor=#666666;fillColor=#f5f5f5;align=center;verticalAlign=middle;whiteSpace=wrap;rounded=0;fontColor=#333333;" parent="1" vertex="1">
          <mxGeometry x="1030" y="910" width="90" height="30" as="geometry" />
        </mxCell>
        <mxCell id="0M848GgJ3vVuBnx2eCQG-182" value="Hotfix" style="text;html=1;strokeColor=#b85450;fillColor=#f8cecc;align=center;verticalAlign=middle;whiteSpace=wrap;rounded=0;" parent="1" vertex="1">
          <mxGeometry x="370" y="910" width="90" height="30" as="geometry" />
        </mxCell>
        <mxCell id="0M848GgJ3vVuBnx2eCQG-183" value="Emergency&lt;br&gt;Feature" style="text;html=1;strokeColor=#82b366;fillColor=#d5e8d4;align=center;verticalAlign=middle;whiteSpace=wrap;rounded=0;" parent="1" vertex="1">
          <mxGeometry x="590.97" y="910" width="90" height="30" as="geometry" />
        </mxCell>
        <mxCell id="0M848GgJ3vVuBnx2eCQG-184" value="Release" style="text;html=1;strokeColor=#d6b656;fillColor=#fff2cc;align=center;verticalAlign=middle;whiteSpace=wrap;rounded=0;" parent="1" vertex="1">
          <mxGeometry x="1140" y="910" width="90" height="30" as="geometry" />
        </mxCell>
        <mxCell id="0M848GgJ3vVuBnx2eCQG-185" value="" style="ellipse;whiteSpace=wrap;html=1;aspect=fixed;fontSize=12;fillColor=#e1d5e7;strokeColor=#9673a6;" parent="1" vertex="1">
          <mxGeometry x="954.97" y="820" width="20" height="20" as="geometry" />
        </mxCell>
        <mxCell id="0M848GgJ3vVuBnx2eCQG-186" value="" style="ellipse;whiteSpace=wrap;html=1;aspect=fixed;fontSize=12;fillColor=#dae8fc;strokeColor=#6c8ebf;" parent="1" vertex="1">
          <mxGeometry x="1285" y="860" width="20" height="20" as="geometry" />
        </mxCell>
        <mxCell id="0M848GgJ3vVuBnx2eCQG-187" value="" style="endArrow=none;dashed=1;html=1;fillColor=#dae8fc;strokeColor=#6c8ebf;entryX=0.5;entryY=1;entryDx=0;entryDy=0;exitX=0.5;exitY=0;exitDx=0;exitDy=0;" parent="1" source="0M848GgJ3vVuBnx2eCQG-177" target="0M848GgJ3vVuBnx2eCQG-186" edge="1">
          <mxGeometry width="50" height="50" relative="1" as="geometry">
            <mxPoint x="1225" y="820" as="sourcePoint" />
            <mxPoint x="1305" y="820" as="targetPoint" />
          </mxGeometry>
        </mxCell>
        <mxCell id="0M848GgJ3vVuBnx2eCQG-190" style="edgeStyle=orthogonalEdgeStyle;rounded=1;orthogonalLoop=1;jettySize=auto;html=1;dashed=1;endArrow=none;endFill=0;fontSize=12;fontColor=#FFB570;fillColor=#dae8fc;strokeColor=#6c8ebf;exitX=0.5;exitY=1;exitDx=0;exitDy=0;entryX=0.5;entryY=0;entryDx=0;entryDy=0;" parent="1" source="0M848GgJ3vVuBnx2eCQG-185" target="0M848GgJ3vVuBnx2eCQG-186" edge="1">
          <mxGeometry relative="1" as="geometry">
            <mxPoint x="909.51" y="820" as="sourcePoint" />
            <mxPoint x="1014.51" y="860" as="targetPoint" />
            <Array as="points">
              <mxPoint x="965" y="850" />
              <mxPoint x="1295" y="850" />
            </Array>
          </mxGeometry>
        </mxCell>
        <mxCell id="0M848GgJ3vVuBnx2eCQG-191" value="" style="ellipse;whiteSpace=wrap;html=1;aspect=fixed;fontSize=12;fillColor=#e1d5e7;strokeColor=#9673a6;" parent="1" vertex="1">
          <mxGeometry x="844.97" y="770" width="20" height="20" as="geometry" />
        </mxCell>
        <mxCell id="0M848GgJ3vVuBnx2eCQG-192" style="edgeStyle=orthogonalEdgeStyle;rounded=1;orthogonalLoop=1;jettySize=auto;html=1;dashed=1;endArrow=none;endFill=0;fontSize=12;fontColor=#FFB570;fillColor=#dae8fc;strokeColor=#6c8ebf;exitX=0.5;exitY=1;exitDx=0;exitDy=0;entryX=0.5;entryY=0;entryDx=0;entryDy=0;" parent="1" source="0M848GgJ3vVuBnx2eCQG-191" target="0M848GgJ3vVuBnx2eCQG-186" edge="1">
          <mxGeometry relative="1" as="geometry">
            <mxPoint x="799.52" y="780" as="sourcePoint" />
            <mxPoint x="1290" y="840" as="targetPoint" />
            <Array as="points">
              <mxPoint x="855" y="810" />
              <mxPoint x="1295" y="810" />
            </Array>
          </mxGeometry>
        </mxCell>
        <mxCell id="0M848GgJ3vVuBnx2eCQG-193" value="Dev 3" style="text;html=1;strokeColor=#666666;fillColor=#f5f5f5;align=center;verticalAlign=middle;whiteSpace=wrap;rounded=0;fontColor=#333333;" parent="1" vertex="1">
          <mxGeometry x="480" y="910" width="90" height="30" as="geometry" />
        </mxCell>
        <mxCell id="0M848GgJ3vVuBnx2eCQG-197" value="" style="ellipse;whiteSpace=wrap;html=1;aspect=fixed;fontSize=12;fillColor=#f8cecc;strokeColor=#b85450;" parent="1" vertex="1">
          <mxGeometry x="405" y="820" width="20" height="20" as="geometry" />
        </mxCell>
        <mxCell id="0M848GgJ3vVuBnx2eCQG-198" value="" style="ellipse;whiteSpace=wrap;html=1;aspect=fixed;fontSize=12;fillColor=#d5e8d4;strokeColor=#82b366;" parent="1" vertex="1">
          <mxGeometry x="630.94" y="820" width="20" height="20" as="geometry" />
        </mxCell>
        <mxCell id="0M848GgJ3vVuBnx2eCQG-199" value="" style="ellipse;whiteSpace=wrap;html=1;aspect=fixed;fontSize=12;fillColor=#f5f5f5;strokeColor=#666666;fontColor=#333333;" parent="1" vertex="1">
          <mxGeometry x="509.97" y="770" width="20" height="20" as="geometry" />
        </mxCell>
        <mxCell id="0M848GgJ3vVuBnx2eCQG-200" value="" style="ellipse;whiteSpace=wrap;html=1;aspect=fixed;fontSize=12;fillColor=#f5f5f5;strokeColor=#666666;fontColor=#333333;" parent="1" vertex="1">
          <mxGeometry x="736.97" y="770" width="20" height="20" as="geometry" />
        </mxCell>
        <mxCell id="0M848GgJ3vVuBnx2eCQG-202" style="edgeStyle=orthogonalEdgeStyle;rounded=1;orthogonalLoop=1;jettySize=auto;html=1;dashed=1;endArrow=none;endFill=0;fontSize=12;fontColor=#FFB570;fillColor=#dae8fc;strokeColor=#6c8ebf;exitX=0.5;exitY=1;exitDx=0;exitDy=0;entryX=0.5;entryY=0;entryDx=0;entryDy=0;" parent="1" source="0M848GgJ3vVuBnx2eCQG-198" target="0M848GgJ3vVuBnx2eCQG-186" edge="1">
          <mxGeometry relative="1" as="geometry">
            <mxPoint x="639.97" y="850" as="sourcePoint" />
            <mxPoint x="969.97" y="870" as="targetPoint" />
            <Array as="points">
              <mxPoint x="641" y="850" />
              <mxPoint x="1295" y="850" />
            </Array>
          </mxGeometry>
        </mxCell>
        <mxCell id="0M848GgJ3vVuBnx2eCQG-203" style="edgeStyle=orthogonalEdgeStyle;rounded=1;orthogonalLoop=1;jettySize=auto;html=1;dashed=1;endArrow=none;endFill=0;fontSize=12;fontColor=#FFB570;fillColor=#dae8fc;strokeColor=#6c8ebf;exitX=0.5;exitY=1;exitDx=0;exitDy=0;entryX=0.5;entryY=0;entryDx=0;entryDy=0;jumpSize=16;" parent="1" source="0M848GgJ3vVuBnx2eCQG-197" target="0M848GgJ3vVuBnx2eCQG-186" edge="1">
          <mxGeometry relative="1" as="geometry">
            <mxPoint x="412.93" y="850" as="sourcePoint" />
            <mxPoint x="1066.93" y="870" as="targetPoint" />
            <Array as="points">
              <mxPoint x="415" y="850" />
              <mxPoint x="1295" y="850" />
            </Array>
          </mxGeometry>
        </mxCell>
        <mxCell id="0M848GgJ3vVuBnx2eCQG-204" style="edgeStyle=orthogonalEdgeStyle;rounded=1;orthogonalLoop=1;jettySize=auto;html=1;endArrow=none;endFill=0;fontSize=12;fontColor=#FFB570;fillColor=#f8cecc;strokeColor=#b85450;exitX=0.5;exitY=0;exitDx=0;exitDy=0;entryX=0.5;entryY=1;entryDx=0;entryDy=0;" parent="1" source="0M848GgJ3vVuBnx2eCQG-197" target="0M848GgJ3vVuBnx2eCQG-199" edge="1">
          <mxGeometry relative="1" as="geometry">
            <mxPoint x="419.94" y="780" as="sourcePoint" />
            <mxPoint x="639.94" y="740" as="targetPoint" />
            <Array as="points">
              <mxPoint x="415" y="800" />
              <mxPoint x="520" y="800" />
            </Array>
          </mxGeometry>
        </mxCell>
        <mxCell id="0M848GgJ3vVuBnx2eCQG-205" style="edgeStyle=orthogonalEdgeStyle;rounded=1;orthogonalLoop=1;jettySize=auto;html=1;endArrow=none;endFill=0;fontSize=12;fontColor=#FFB570;fillColor=#d5e8d4;strokeColor=#82b366;exitX=0.5;exitY=0;exitDx=0;exitDy=0;entryX=0.5;entryY=1;entryDx=0;entryDy=0;" parent="1" edge="1">
          <mxGeometry relative="1" as="geometry">
            <mxPoint x="639.94" y="820" as="sourcePoint" />
            <mxPoint x="744.94" y="790" as="targetPoint" />
            <Array as="points">
              <mxPoint x="639.94" y="800" />
              <mxPoint x="744.94" y="800" />
            </Array>
          </mxGeometry>
        </mxCell>
        <mxCell id="0M848GgJ3vVuBnx2eCQG-206" value="" style="ellipse;whiteSpace=wrap;html=1;aspect=fixed;fontSize=12;fillColor=#fff2cc;strokeColor=#d6b656;" parent="1" vertex="1">
          <mxGeometry x="1174.97" y="860" width="20" height="20" as="geometry" />
        </mxCell>
        <mxCell id="0M848GgJ3vVuBnx2eCQG-208" value="" style="endArrow=none;dashed=1;html=1;fillColor=#fff2cc;strokeColor=#d6b656;exitX=0.5;exitY=1;exitDx=0;exitDy=0;" parent="1" source="0M848GgJ3vVuBnx2eCQG-206" target="0M848GgJ3vVuBnx2eCQG-184" edge="1">
          <mxGeometry width="50" height="50" relative="1" as="geometry">
            <mxPoint x="1190" y="960" as="sourcePoint" />
            <mxPoint x="1290" y="1150" as="targetPoint" />
          </mxGeometry>
        </mxCell>
        <mxCell id="0M848GgJ3vVuBnx2eCQG-209" value="" style="ellipse;whiteSpace=wrap;html=1;aspect=fixed;fontSize=12;fillColor=#fff2cc;strokeColor=#d6b656;" parent="1" vertex="1">
          <mxGeometry x="1174.97" y="710" width="20" height="20" as="geometry" />
        </mxCell>
        <mxCell id="0M848GgJ3vVuBnx2eCQG-213" value="" style="endArrow=none;dashed=1;html=1;fillColor=#fff2cc;strokeColor=#d6b656;exitX=0.5;exitY=1;exitDx=0;exitDy=0;entryX=0.5;entryY=0;entryDx=0;entryDy=0;" parent="1" source="0M848GgJ3vVuBnx2eCQG-209" target="0M848GgJ3vVuBnx2eCQG-206" edge="1">
          <mxGeometry width="50" height="50" relative="1" as="geometry">
            <mxPoint x="1195" y="890" as="sourcePoint" />
            <mxPoint x="1195" y="920" as="targetPoint" />
          </mxGeometry>
        </mxCell>
        <mxCell id="0M848GgJ3vVuBnx2eCQG-216" value="" style="ellipse;whiteSpace=wrap;html=1;aspect=fixed;fontSize=12;fillColor=#fff2cc;strokeColor=#d6b656;" parent="1" vertex="1">
          <mxGeometry x="1175" y="510" width="20" height="20" as="geometry" />
        </mxCell>
        <mxCell id="0M848GgJ3vVuBnx2eCQG-217" value="" style="ellipse;whiteSpace=wrap;html=1;aspect=fixed;fontSize=12;fillColor=#dae8fc;strokeColor=#6c8ebf;" parent="1" vertex="1">
          <mxGeometry x="1285" y="450" width="20" height="20" as="geometry" />
        </mxCell>
        <mxCell id="0M848GgJ3vVuBnx2eCQG-218" style="edgeStyle=orthogonalEdgeStyle;rounded=1;orthogonalLoop=1;jettySize=auto;html=1;endArrow=none;endFill=0;fontSize=12;fontColor=#FFB570;fillColor=#fff2cc;strokeColor=#d6b656;entryX=0.5;entryY=1;entryDx=0;entryDy=0;exitX=0.5;exitY=0;exitDx=0;exitDy=0;" parent="1" source="0M848GgJ3vVuBnx2eCQG-216" target="0M848GgJ3vVuBnx2eCQG-217" edge="1">
          <mxGeometry relative="1" as="geometry">
            <mxPoint x="1180" y="460" as="sourcePoint" />
            <mxPoint x="1289.97" y="420" as="targetPoint" />
            <Array as="points">
              <mxPoint x="1185" y="490" />
              <mxPoint x="1295" y="490" />
            </Array>
          </mxGeometry>
        </mxCell>
        <mxCell id="0M848GgJ3vVuBnx2eCQG-219" value="" style="ellipse;whiteSpace=wrap;html=1;aspect=fixed;fontSize=12;fillColor=#fff2cc;strokeColor=#d6b656;" parent="1" vertex="1">
          <mxGeometry x="1175" y="220" width="20" height="20" as="geometry" />
        </mxCell>
        <mxCell id="0M848GgJ3vVuBnx2eCQG-220" value="" style="ellipse;whiteSpace=wrap;html=1;aspect=fixed;fontSize=12;fillColor=#dae8fc;strokeColor=#6c8ebf;" parent="1" vertex="1">
          <mxGeometry x="1285" y="160" width="20" height="20" as="geometry" />
        </mxCell>
        <mxCell id="0M848GgJ3vVuBnx2eCQG-221" style="edgeStyle=orthogonalEdgeStyle;rounded=1;orthogonalLoop=1;jettySize=auto;html=1;endArrow=none;endFill=0;fontSize=12;fontColor=#FFB570;fillColor=#fff2cc;strokeColor=#d6b656;exitX=0.5;exitY=0;exitDx=0;exitDy=0;entryX=0.5;entryY=1;entryDx=0;entryDy=0;" parent="1" source="0M848GgJ3vVuBnx2eCQG-219" target="0M848GgJ3vVuBnx2eCQG-220" edge="1">
          <mxGeometry relative="1" as="geometry">
            <mxPoint x="1174.94" y="220" as="sourcePoint" />
            <mxPoint x="1284.94" y="180" as="targetPoint" />
            <Array as="points">
              <mxPoint x="1185" y="200" />
              <mxPoint x="1295" y="200" />
            </Array>
          </mxGeometry>
        </mxCell>
        <mxCell id="0M848GgJ3vVuBnx2eCQG-226" value="" style="endArrow=none;dashed=1;html=1;fillColor=#dae8fc;strokeColor=#6c8ebf;exitX=0.5;exitY=1;exitDx=0;exitDy=0;entryX=0.5;entryY=0;entryDx=0;entryDy=0;" parent="1" source="0M848GgJ3vVuBnx2eCQG-220" target="0M848GgJ3vVuBnx2eCQG-217" edge="1">
          <mxGeometry width="50" height="50" relative="1" as="geometry">
            <mxPoint x="1289.47" y="180" as="sourcePoint" />
            <mxPoint x="1289.97" y="250" as="targetPoint" />
          </mxGeometry>
        </mxCell>
        <mxCell id="0M848GgJ3vVuBnx2eCQG-227" value="" style="endArrow=none;dashed=1;html=1;fillColor=#dae8fc;strokeColor=#6c8ebf;" parent="1" source="0M848GgJ3vVuBnx2eCQG-210" edge="1">
          <mxGeometry width="50" height="50" relative="1" as="geometry">
            <mxPoint x="1295" y="610" as="sourcePoint" />
            <mxPoint x="1295" y="860" as="targetPoint" />
          </mxGeometry>
        </mxCell>
        <mxCell id="0M848GgJ3vVuBnx2eCQG-228" value="" style="endArrow=none;dashed=1;html=1;fillColor=#fff2cc;strokeColor=#d6b656;exitX=0.5;exitY=1;exitDx=0;exitDy=0;entryX=0.5;entryY=0;entryDx=0;entryDy=0;" parent="1" source="0M848GgJ3vVuBnx2eCQG-219" target="0M848GgJ3vVuBnx2eCQG-216" edge="1">
          <mxGeometry width="50" height="50" relative="1" as="geometry">
            <mxPoint x="1209.97" y="500" as="sourcePoint" />
            <mxPoint x="1210.47" y="570" as="targetPoint" />
          </mxGeometry>
        </mxCell>
        <mxCell id="0M848GgJ3vVuBnx2eCQG-230" value="提测" style="text;html=1;strokeColor=#666666;fillColor=#f5f5f5;align=center;verticalAlign=middle;whiteSpace=wrap;rounded=0;fontColor=#333333;" parent="1" vertex="1">
          <mxGeometry x="535" y="772" width="46" height="16" as="geometry" />
        </mxCell>
        <mxCell id="0M848GgJ3vVuBnx2eCQG-233" value="发版" style="text;html=1;strokeColor=#d6b656;fillColor=#fff2cc;align=center;verticalAlign=middle;whiteSpace=wrap;rounded=0;" parent="1" vertex="1">
          <mxGeometry x="1198" y="222.5" width="42" height="15" as="geometry" />
        </mxCell>
        <mxCell id="0M848GgJ3vVuBnx2eCQG-236" value="" style="ellipse;whiteSpace=wrap;html=1;aspect=fixed;fontSize=12;fillColor=#f5f5f5;strokeColor=#666666;fontColor=#333333;" parent="1" vertex="1">
          <mxGeometry x="1063.97" y="820" width="20" height="20" as="geometry" />
        </mxCell>
        <mxCell id="0M848GgJ3vVuBnx2eCQG-237" value="" style="endArrow=none;dashed=1;html=1;fillColor=#e1d5e7;strokeColor=#9673a6;exitX=0;exitY=0.5;exitDx=0;exitDy=0;entryX=1;entryY=0.5;entryDx=0;entryDy=0;" parent="1" source="0M848GgJ3vVuBnx2eCQG-236" target="0M848GgJ3vVuBnx2eCQG-185" edge="1">
          <mxGeometry width="50" height="50" relative="1" as="geometry">
            <mxPoint x="1034.94" y="735" as="sourcePoint" />
            <mxPoint x="1034.94" y="795" as="targetPoint" />
          </mxGeometry>
        </mxCell>
        <mxCell id="0M848GgJ3vVuBnx2eCQG-241" value="MR + CR" style="text;html=1;strokeColor=#82b366;fillColor=#d5e8d4;align=center;verticalAlign=middle;whiteSpace=wrap;rounded=0;" parent="1" vertex="1">
          <mxGeometry x="661.97" y="777" width="53.03" height="18" as="geometry" />
        </mxCell>
        <mxCell id="0M848GgJ3vVuBnx2eCQG-246" value="MR" style="text;html=1;strokeColor=#d6b656;fillColor=#fff2cc;align=center;verticalAlign=middle;whiteSpace=wrap;rounded=0;" parent="1" vertex="1">
          <mxGeometry x="1221" y="178" width="46.03" height="19" as="geometry" />
        </mxCell>
        <mxCell id="0M848GgJ3vVuBnx2eCQG-250" style="edgeStyle=orthogonalEdgeStyle;rounded=1;orthogonalLoop=1;jettySize=auto;html=1;endArrow=none;endFill=0;fontSize=12;fontColor=#FFB570;fillColor=#f5f5f5;strokeColor=#666666;exitX=0.5;exitY=0;exitDx=0;exitDy=0;entryX=0.5;entryY=1;entryDx=0;entryDy=0;" parent="1" source="0M848GgJ3vVuBnx2eCQG-200" target="0M848GgJ3vVuBnx2eCQG-209" edge="1">
          <mxGeometry relative="1" as="geometry">
            <mxPoint x="590.97" y="680" as="sourcePoint" />
            <mxPoint x="1255.97" y="410" as="targetPoint" />
            <Array as="points">
              <mxPoint x="747" y="750" />
              <mxPoint x="1185" y="750" />
            </Array>
          </mxGeometry>
        </mxCell>
        <mxCell id="0M848GgJ3vVuBnx2eCQG-251" value="" style="ellipse;whiteSpace=wrap;html=1;aspect=fixed;fontSize=12;fillColor=#f5f5f5;strokeColor=#666666;fontColor=#333333;" parent="1" vertex="1">
          <mxGeometry x="1065" y="580" width="20" height="20" as="geometry" />
        </mxCell>
        <mxCell id="0M848GgJ3vVuBnx2eCQG-259" value="" style="edgeStyle=orthogonalEdgeStyle;rounded=1;orthogonalLoop=1;jettySize=auto;html=1;endArrow=none;endFill=0;fontSize=12;fontColor=#FFB570;fillColor=#fff2cc;strokeColor=#d6b656;exitX=0.5;exitY=0;exitDx=0;exitDy=0;entryX=0.5;entryY=1;entryDx=0;entryDy=0;" parent="1" source="0M848GgJ3vVuBnx2eCQG-209" target="0M848GgJ3vVuBnx2eCQG-210" edge="1">
          <mxGeometry relative="1" as="geometry">
            <mxPoint x="1185" y="680" as="sourcePoint" />
            <mxPoint x="1294.97" y="610" as="targetPoint" />
            <Array as="points">
              <mxPoint x="1185" y="700" />
              <mxPoint x="1295" y="700" />
            </Array>
          </mxGeometry>
        </mxCell>
        <mxCell id="0M848GgJ3vVuBnx2eCQG-210" value="" style="ellipse;whiteSpace=wrap;html=1;aspect=fixed;fontSize=12;fillColor=#dae8fc;strokeColor=#6c8ebf;" parent="1" vertex="1">
          <mxGeometry x="1284.97" y="660" width="20" height="20" as="geometry" />
        </mxCell>
        <mxCell id="0M848GgJ3vVuBnx2eCQG-260" value="" style="edgeStyle=orthogonalEdgeStyle;rounded=1;orthogonalLoop=1;jettySize=auto;html=1;endArrow=none;endFill=0;fontSize=12;fontColor=#FFB570;fillColor=#dae8fc;strokeColor=#6c8ebf;exitX=0.5;exitY=1;exitDx=0;exitDy=0;entryX=0.5;entryY=0;entryDx=0;entryDy=0;" parent="1" source="0M848GgJ3vVuBnx2eCQG-261" target="0M848GgJ3vVuBnx2eCQG-210" edge="1">
          <mxGeometry relative="1" as="geometry">
            <mxPoint x="969.97" y="655" as="sourcePoint" />
            <mxPoint x="1079.97" y="625" as="targetPoint" />
            <Array as="points">
              <mxPoint x="855" y="650" />
              <mxPoint x="1295" y="650" />
            </Array>
          </mxGeometry>
        </mxCell>
        <mxCell id="0M848GgJ3vVuBnx2eCQG-262" value="" style="edgeStyle=orthogonalEdgeStyle;rounded=1;orthogonalLoop=1;jettySize=auto;html=1;endArrow=none;endFill=0;fontSize=12;fontColor=#FFB570;fillColor=#e1d5e7;strokeColor=#9673a6;exitX=0.5;exitY=0;exitDx=0;exitDy=0;entryX=0.5;entryY=1;entryDx=0;entryDy=0;" parent="1" source="0M848GgJ3vVuBnx2eCQG-261" target="0M848GgJ3vVuBnx2eCQG-251" edge="1">
          <mxGeometry relative="1" as="geometry">
            <mxPoint x="865" y="610" as="sourcePoint" />
            <mxPoint x="1305" y="640" as="targetPoint" />
            <Array as="points">
              <mxPoint x="855" y="610" />
              <mxPoint x="1075" y="610" />
            </Array>
          </mxGeometry>
        </mxCell>
        <mxCell id="0M848GgJ3vVuBnx2eCQG-263" value="" style="endArrow=none;dashed=1;html=1;fillColor=#e1d5e7;strokeColor=#9673a6;exitX=0.5;exitY=1;exitDx=0;exitDy=0;entryX=0.5;entryY=0;entryDx=0;entryDy=0;" parent="1" source="0M848GgJ3vVuBnx2eCQG-261" target="0M848GgJ3vVuBnx2eCQG-191" edge="1">
          <mxGeometry width="50" height="50" relative="1" as="geometry">
            <mxPoint x="854.49" y="600" as="sourcePoint" />
            <mxPoint x="854.49" y="760" as="targetPoint" />
          </mxGeometry>
        </mxCell>
        <mxCell id="0M848GgJ3vVuBnx2eCQG-264" value="" style="endArrow=none;dashed=1;html=1;fillColor=#f5f5f5;strokeColor=#666666;exitX=0.5;exitY=1;exitDx=0;exitDy=0;entryX=0.5;entryY=0;entryDx=0;entryDy=0;" parent="1" source="0M848GgJ3vVuBnx2eCQG-251" target="0M848GgJ3vVuBnx2eCQG-236" edge="1">
          <mxGeometry width="50" height="50" relative="1" as="geometry">
            <mxPoint x="864.49" y="610" as="sourcePoint" />
            <mxPoint x="865" y="780" as="targetPoint" />
          </mxGeometry>
        </mxCell>
        <mxCell id="0M848GgJ3vVuBnx2eCQG-261" value="" style="ellipse;whiteSpace=wrap;html=1;aspect=fixed;fontSize=12;fillColor=#e1d5e7;strokeColor=#9673a6;" parent="1" vertex="1">
          <mxGeometry x="844.97" y="620" width="20" height="20" as="geometry" />
        </mxCell>
        <mxCell id="0M848GgJ3vVuBnx2eCQG-266" style="edgeStyle=orthogonalEdgeStyle;rounded=1;orthogonalLoop=1;jettySize=auto;html=1;endArrow=none;endFill=0;fontSize=12;fontColor=#FFB570;fillColor=#f5f5f5;strokeColor=#666666;entryX=0.5;entryY=1;entryDx=0;entryDy=0;exitX=0.5;exitY=0;exitDx=0;exitDy=0;" parent="1" source="0M848GgJ3vVuBnx2eCQG-199" target="0M848GgJ3vVuBnx2eCQG-216" edge="1">
          <mxGeometry relative="1" as="geometry">
            <mxPoint x="519.94" y="590" as="sourcePoint" />
            <mxPoint x="629.94" y="550" as="targetPoint" />
            <Array as="points">
              <mxPoint x="520" y="550" />
              <mxPoint x="1185" y="550" />
            </Array>
          </mxGeometry>
        </mxCell>
        <mxCell id="0M848GgJ3vVuBnx2eCQG-267" value="" style="ellipse;whiteSpace=wrap;html=1;aspect=fixed;fontSize=12;fillColor=#f5f5f5;strokeColor=#666666;fontColor=#333333;" parent="1" vertex="1">
          <mxGeometry x="1065" y="390" width="20" height="20" as="geometry" />
        </mxCell>
        <mxCell id="0M848GgJ3vVuBnx2eCQG-268" style="edgeStyle=orthogonalEdgeStyle;rounded=1;orthogonalLoop=1;jettySize=auto;html=1;endArrow=none;endFill=0;fontSize=12;fontColor=#FFB570;fillColor=#dae8fc;strokeColor=#6c8ebf;entryX=0.5;entryY=0;entryDx=0;entryDy=0;exitX=0.5;exitY=1;exitDx=0;exitDy=0;" parent="1" source="0M848GgJ3vVuBnx2eCQG-267" target="0M848GgJ3vVuBnx2eCQG-217" edge="1">
          <mxGeometry relative="1" as="geometry">
            <mxPoint x="1195" y="470" as="sourcePoint" />
            <mxPoint x="1305" y="430" as="targetPoint" />
            <Array as="points">
              <mxPoint x="1075" y="430" />
              <mxPoint x="1295" y="430" />
            </Array>
          </mxGeometry>
        </mxCell>
        <mxCell id="0M848GgJ3vVuBnx2eCQG-271" value="" style="ellipse;whiteSpace=wrap;html=1;aspect=fixed;fontSize=12;fillColor=#e1d5e7;strokeColor=#9673a6;" parent="1" vertex="1">
          <mxGeometry x="844.97" y="325" width="20" height="20" as="geometry" />
        </mxCell>
        <mxCell id="0M848GgJ3vVuBnx2eCQG-272" style="edgeStyle=orthogonalEdgeStyle;rounded=1;orthogonalLoop=1;jettySize=auto;html=1;endArrow=none;endFill=0;fontSize=12;fontColor=#FFB570;fillColor=#f5f5f5;strokeColor=#666666;entryX=0.5;entryY=0;entryDx=0;entryDy=0;exitX=0.5;exitY=1;exitDx=0;exitDy=0;" parent="1" source="0M848GgJ3vVuBnx2eCQG-271" target="0M848GgJ3vVuBnx2eCQG-267" edge="1">
          <mxGeometry relative="1" as="geometry">
            <mxPoint x="1085" y="420" as="sourcePoint" />
            <mxPoint x="1305" y="460" as="targetPoint" />
            <Array as="points">
              <mxPoint x="855" y="360" />
              <mxPoint x="1075" y="360" />
            </Array>
          </mxGeometry>
        </mxCell>
        <mxCell id="0M848GgJ3vVuBnx2eCQG-273" value="" style="ellipse;whiteSpace=wrap;html=1;aspect=fixed;fontSize=12;fillColor=#e1d5e7;strokeColor=#9673a6;" parent="1" vertex="1">
          <mxGeometry x="954.97" y="325" width="20" height="20" as="geometry" />
        </mxCell>
        <mxCell id="0M848GgJ3vVuBnx2eCQG-275" style="edgeStyle=orthogonalEdgeStyle;rounded=1;orthogonalLoop=1;jettySize=auto;html=1;endArrow=none;endFill=0;fontSize=12;fontColor=#FFB570;fillColor=#f5f5f5;strokeColor=#666666;entryX=0.5;entryY=0;entryDx=0;entryDy=0;exitX=0.5;exitY=1;exitDx=0;exitDy=0;" parent="1" source="0M848GgJ3vVuBnx2eCQG-273" target="0M848GgJ3vVuBnx2eCQG-267" edge="1">
          <mxGeometry relative="1" as="geometry">
            <mxPoint x="865" y="355" as="sourcePoint" />
            <mxPoint x="1085" y="400" as="targetPoint" />
            <Array as="points">
              <mxPoint x="965" y="360" />
              <mxPoint x="1075" y="360" />
            </Array>
          </mxGeometry>
        </mxCell>
        <mxCell id="0M848GgJ3vVuBnx2eCQG-276" value="" style="ellipse;whiteSpace=wrap;html=1;aspect=fixed;fontSize=12;fillColor=#f5f5f5;strokeColor=#666666;fontColor=#333333;" parent="1" vertex="1">
          <mxGeometry x="1065" y="280" width="20" height="20" as="geometry" />
        </mxCell>
        <mxCell id="0M848GgJ3vVuBnx2eCQG-277" style="edgeStyle=orthogonalEdgeStyle;rounded=1;orthogonalLoop=1;jettySize=auto;html=1;endArrow=none;endFill=0;fontSize=12;fontColor=#FFB570;fillColor=#e1d5e7;strokeColor=#9673a6;entryX=0.5;entryY=1;entryDx=0;entryDy=0;exitX=0.5;exitY=0;exitDx=0;exitDy=0;" parent="1" source="0M848GgJ3vVuBnx2eCQG-271" target="0M848GgJ3vVuBnx2eCQG-276" edge="1">
          <mxGeometry relative="1" as="geometry">
            <mxPoint x="865" y="355" as="sourcePoint" />
            <mxPoint x="1085" y="400" as="targetPoint" />
            <Array as="points">
              <mxPoint x="855" y="310" />
              <mxPoint x="1075" y="310" />
            </Array>
          </mxGeometry>
        </mxCell>
        <mxCell id="0M848GgJ3vVuBnx2eCQG-278" style="edgeStyle=orthogonalEdgeStyle;rounded=1;orthogonalLoop=1;jettySize=auto;html=1;endArrow=none;endFill=0;fontSize=12;fontColor=#FFB570;fillColor=#e1d5e7;strokeColor=#9673a6;entryX=0.5;entryY=1;entryDx=0;entryDy=0;exitX=0.5;exitY=0;exitDx=0;exitDy=0;" parent="1" source="0M848GgJ3vVuBnx2eCQG-273" target="0M848GgJ3vVuBnx2eCQG-276" edge="1">
          <mxGeometry relative="1" as="geometry">
            <mxPoint x="865" y="335" as="sourcePoint" />
            <mxPoint x="1085" y="310" as="targetPoint" />
            <Array as="points">
              <mxPoint x="965" y="310" />
              <mxPoint x="1075" y="310" />
            </Array>
          </mxGeometry>
        </mxCell>
        <mxCell id="0M848GgJ3vVuBnx2eCQG-279" style="edgeStyle=orthogonalEdgeStyle;rounded=1;orthogonalLoop=1;jettySize=auto;html=1;endArrow=none;endFill=0;fontSize=12;fontColor=#FFB570;fillColor=#f5f5f5;strokeColor=#666666;exitX=0.5;exitY=0;exitDx=0;exitDy=0;entryX=0.5;entryY=1;entryDx=0;entryDy=0;" parent="1" source="0M848GgJ3vVuBnx2eCQG-276" target="0M848GgJ3vVuBnx2eCQG-219" edge="1">
          <mxGeometry relative="1" as="geometry">
            <mxPoint x="1075" y="270" as="sourcePoint" />
            <mxPoint x="1190" y="240" as="targetPoint" />
            <Array as="points">
              <mxPoint x="1075" y="260" />
              <mxPoint x="1185" y="260" />
            </Array>
          </mxGeometry>
        </mxCell>
        <mxCell id="0M848GgJ3vVuBnx2eCQG-280" value="" style="endArrow=none;dashed=1;html=1;fillColor=#e1d5e7;strokeColor=#9673a6;entryX=0.5;entryY=0;entryDx=0;entryDy=0;" parent="1" target="0M848GgJ3vVuBnx2eCQG-261" edge="1">
          <mxGeometry width="50" height="50" relative="1" as="geometry">
            <mxPoint x="855" y="350" as="sourcePoint" />
            <mxPoint x="865" y="780" as="targetPoint" />
          </mxGeometry>
        </mxCell>
        <mxCell id="0M848GgJ3vVuBnx2eCQG-281" value="" style="endArrow=none;dashed=1;html=1;fillColor=#e1d5e7;strokeColor=#9673a6;entryX=0.5;entryY=0;entryDx=0;entryDy=0;exitX=0.5;exitY=1;exitDx=0;exitDy=0;" parent="1" source="0M848GgJ3vVuBnx2eCQG-273" target="0M848GgJ3vVuBnx2eCQG-185" edge="1">
          <mxGeometry width="50" height="50" relative="1" as="geometry">
            <mxPoint x="865" y="360" as="sourcePoint" />
            <mxPoint x="865" y="630" as="targetPoint" />
          </mxGeometry>
        </mxCell>
        <mxCell id="0M848GgJ3vVuBnx2eCQG-282" value="" style="endArrow=none;dashed=1;html=1;fillColor=#e1d5e7;strokeColor=#9673a6;entryX=0.5;entryY=0;entryDx=0;entryDy=0;exitX=0.5;exitY=1;exitDx=0;exitDy=0;" parent="1" source="0M848GgJ3vVuBnx2eCQG-267" target="0M848GgJ3vVuBnx2eCQG-251" edge="1">
          <mxGeometry width="50" height="50" relative="1" as="geometry">
            <mxPoint x="975" y="355" as="sourcePoint" />
            <mxPoint x="975" y="830" as="targetPoint" />
          </mxGeometry>
        </mxCell>
        <mxCell id="0M848GgJ3vVuBnx2eCQG-283" value="" style="endArrow=none;dashed=1;html=1;fillColor=#fff2cc;strokeColor=#d6b656;exitX=0.5;exitY=1;exitDx=0;exitDy=0;" parent="1" source="0M848GgJ3vVuBnx2eCQG-216" edge="1">
          <mxGeometry width="50" height="50" relative="1" as="geometry">
            <mxPoint x="1085" y="420" as="sourcePoint" />
            <mxPoint x="1185" y="710" as="targetPoint" />
            <Array as="points" />
          </mxGeometry>
        </mxCell>
        <mxCell id="0M848GgJ3vVuBnx2eCQG-284" value="" style="endArrow=none;dashed=1;html=1;fillColor=#dae8fc;strokeColor=#6c8ebf;exitX=0.5;exitY=1;exitDx=0;exitDy=0;entryX=0.5;entryY=0;entryDx=0;entryDy=0;" parent="1" source="0M848GgJ3vVuBnx2eCQG-217" target="0M848GgJ3vVuBnx2eCQG-210" edge="1">
          <mxGeometry width="50" height="50" relative="1" as="geometry">
            <mxPoint x="1300" y="470" as="sourcePoint" />
            <mxPoint x="1300" y="660" as="targetPoint" />
          </mxGeometry>
        </mxCell>
        <mxCell id="0M848GgJ3vVuBnx2eCQG-286" value="冲突" style="text;html=1;strokeColor=#6c8ebf;fillColor=#dae8fc;align=center;verticalAlign=middle;whiteSpace=wrap;rounded=0;" parent="1" vertex="1">
          <mxGeometry x="885" y="654" width="49" height="17" as="geometry" />
        </mxCell>
        <mxCell id="0M848GgJ3vVuBnx2eCQG-287" value="MR + CR" style="text;html=1;strokeColor=#b85450;fillColor=#f8cecc;align=center;verticalAlign=middle;whiteSpace=wrap;rounded=0;" parent="1" vertex="1">
          <mxGeometry x="438" y="775" width="53.03" height="18" as="geometry" />
        </mxCell>
        <mxCell id="0M848GgJ3vVuBnx2eCQG-288" value="冲突" style="text;html=1;strokeColor=#6c8ebf;fillColor=#dae8fc;align=center;verticalAlign=middle;whiteSpace=wrap;rounded=0;" parent="1" vertex="1">
          <mxGeometry x="1106" y="433" width="49" height="17" as="geometry" />
        </mxCell>
        <mxCell id="0M848GgJ3vVuBnx2eCQG-291" value="提测" style="text;html=1;strokeColor=#666666;fillColor=#f5f5f5;align=center;verticalAlign=middle;whiteSpace=wrap;rounded=0;fontColor=#333333;" parent="1" vertex="1">
          <mxGeometry x="1089" y="282" width="46" height="16" as="geometry" />
        </mxCell>
        <mxCell id="0M848GgJ3vVuBnx2eCQG-292" value="发版" style="text;html=1;strokeColor=#d6b656;fillColor=#fff2cc;align=center;verticalAlign=middle;whiteSpace=wrap;rounded=0;" parent="1" vertex="1">
          <mxGeometry x="1200" y="512.5" width="42" height="15" as="geometry" />
        </mxCell>
        <mxCell id="0M848GgJ3vVuBnx2eCQG-293" value="发版" style="text;html=1;strokeColor=#d6b656;fillColor=#fff2cc;align=center;verticalAlign=middle;whiteSpace=wrap;rounded=0;" parent="1" vertex="1">
          <mxGeometry x="1200" y="712.5" width="42" height="15" as="geometry" />
        </mxCell>
        <mxCell id="0M848GgJ3vVuBnx2eCQG-294" value="MR" style="text;html=1;strokeColor=#d6b656;fillColor=#fff2cc;align=center;verticalAlign=middle;whiteSpace=wrap;rounded=0;" parent="1" vertex="1">
          <mxGeometry x="1221" y="467" width="46.03" height="19" as="geometry" />
        </mxCell>
        <mxCell id="0M848GgJ3vVuBnx2eCQG-295" value="MR" style="text;html=1;strokeColor=#d6b656;fillColor=#fff2cc;align=center;verticalAlign=middle;whiteSpace=wrap;rounded=0;" parent="1" vertex="1">
          <mxGeometry x="1221" y="675" width="46.03" height="19" as="geometry" />
        </mxCell>
        <mxCell id="0M848GgJ3vVuBnx2eCQG-297" value="提测" style="text;html=1;strokeColor=#666666;fillColor=#f5f5f5;align=center;verticalAlign=middle;whiteSpace=wrap;rounded=0;fontColor=#333333;" parent="1" vertex="1">
          <mxGeometry x="760" y="772" width="46" height="16" as="geometry" />
        </mxCell>
        <mxCell id="x2ZoCHFu0eA8mfs3QXmO-1" value="MR + CR" style="text;html=1;strokeColor=#9673a6;fillColor=#e1d5e7;align=center;verticalAlign=middle;whiteSpace=wrap;rounded=0;" vertex="1" parent="1">
          <mxGeometry x="988" y="288" width="53.03" height="18" as="geometry" />
        </mxCell>
        <mxCell id="x2ZoCHFu0eA8mfs3QXmO-2" value="MR + CR" style="text;html=1;strokeColor=#9673a6;fillColor=#e1d5e7;align=center;verticalAlign=middle;whiteSpace=wrap;rounded=0;" vertex="1" parent="1">
          <mxGeometry x="991" y="586" width="53.03" height="18" as="geometry" />
        </mxCell>
      </root>
    </mxGraphModel>
  </diagram>
</mxfile>
